#!OML:ASF H:\BreakDance\Project 1\Capture day 1\Session 1\Male.ASF
:FULLY-SPECIFIED
:DEGREES
380
root 29.9862 15.6537 -9.47468 111.097 -78.2343 -101.952
lowerback -2.60788 0.885832 2.29192
upperback 0.917598 1.10595 -0.302443
thorax 2.45404 0.589143 -1.54309
lowerneck -2.00888 -0.377016 -2.55085
upperneck -13.3239 -0.175242 6.88919
head -4.02943 -0.393278 2.801
rclavicle 1.19271e-015 1.90833e-014
rhumerus -19.4047 30.3617 -89.2142
rradius 93.4248
rwrist -7.8301
rhand -17.968 -8.01677
rfingers 7.12502
rthumb 8.30121 -37.8337
lclavicle 1.19271e-015 1.90833e-014
lhumerus -22.976 -39.3901 85.9103
lradius 92.0736
lwrist 5.86166
lhand -43.6835 -48.8517
lfingers 7.12502
lthumb -16.5165 -19.5347
rfemur -43.256 1.40758 24.5047
rtibia 61.1727
rfoot -23.0143 4.66405
rtoes -1.02938
lfemur -15.9233 3.88265 -23.5834
ltibia 48.3139
lfoot -32.677 -1.26541
ltoes 9.39191
381
root 29.9127 15.5768 -9.54618 117.028 -78.0434 -108.062
lowerback -2.1727 0.684534 2.13879
upperback 0.983751 0.851413 -0.282541
thorax 2.26326 0.458029 -1.45375
lowerneck -1.87939 0.38261 -1.8994
upperneck -13.8096 0.813753 6.39236
head -4.2729 0.0655771 2.4948
rclavicle -1.19271e-015 5.725e-014
rhumerus -18.3107 30.0964 -89.6802
rradius 93.7126
rwrist -7.30061
rhand -17.9479 -8.43016
rfingers 7.12502
rthumb 8.3206 -38.2463
lclavicle -1.19271e-015 5.725e-014
lhumerus -21.5131 -40.585 85.1859
lradius 93.299
lwrist 4.99998
lhand -43.5345 -49.6086
lfingers 7.12502
lthumb -16.3731 -20.2797
rfemur -44.1521 1.94444 24.5377
rtibia 61.2832
rfoot -22.8447 4.50997
rtoes -0.994812
lfemur -15.03 4.51693 -23.6816
ltibia 47.8332
lfoot -34.4893 -1.10071
ltoes 8.14902
382
root 29.835 15.5032 -9.61869 122.651 -77.8749 -113.808
lowerback -1.78057 0.477523 1.83859
upperback 1.01576 0.592298 -0.313484
thorax 2.06186 0.322749 -1.33104
lowerneck -1.7886 1.07956 -1.27114
upperneck -14.1994 1.72591 5.99751
head -4.46251 0.484005 2.22359
rclavicle 1.19271e-015 1.90833e-014
rhumerus -17.539 29.7725 -90.313
rradius 93.9998
rwrist -6.97863
rhand -17.8935 -8.74028
rfingers 7.12502
rthumb 8.37314 -38.5543
lclavicle 1.19271e-015 1.90833e-014
lhumerus -20.0694 -41.8725 84.4134
lradius 94.4414
lwrist 4.21476
lhand -43.0923 -50.1613
lfingers 7.12502
lthumb -15.9472 -20.7979
rfemur -45.1177 2.43147 24.426
rtibia 61.4617
rfoot -22.6819 4.42921
rtoes -0.456172
lfemur -14.1309 5.16634 -23.8462
ltibia 47.2289
lfoot -36.0884 -1.28503
ltoes 7.57262
383
root 29.752 15.4352 -9.69116 128.202 -77.7559 -119.412
lowerback -1.47574 0.273309 1.41618
upperback 1.0154 0.337106 -0.415646
thorax 1.87853 0.188692 -1.20944
lowerneck -1.70692 1.71131 -0.665852
upperneck -14.5241 2.55922 5.70181
head -4.61742 0.860206 1.98927
rclavicle -1.19271e-015 -3.18055e-015
rhumerus -17.0984 29.3779 -91.1044
rradius 94.2955
rwrist -6.92524
rhand -17.789 -8.93367
rfingers 7.12502
rthumb 8.47397 -38.7436
lclavicle -1.19271e-015 -3.18055e-015
lhumerus -18.6416 -43.2523 83.5831
lradius 95.4749
lwrist 3.53354
lhand -42.3815 -50.4858
lfingers 7.12502
lthumb -15.2626 -21.0689
rfemur -46.1675 2.83112 24.1538
rtibia 61.69
rfoot -22.5363 4.39844
rtoes 0.185656
lfemur -13.2694 5.74938 -24.1817
ltibia 46.5377
lfoot -37.4663 -1.49839
ltoes 7.50765
384
root 29.6626 15.3748 -9.76171 133.792 -77.6725 -124.963
lowerback -1.26828 0.0770813 0.931327
upperback 0.943161 0.0907558 -0.585642
thorax 1.67933 0.0588692 -1.11959
lowerneck -1.49579 2.26425 -0.085925
upperneck -14.8036 3.29957 5.47647
head -4.77333 1.18795 1.7837
rclavicle -8.74653e-015 -4.13472e-014
rhumerus -17.0734 28.9227 -92.0617
rradius 94.6118
rwrist -7.15888
rhand -17.6768 -9.03145
rfingers 7.12502
rthumb 8.58224 -38.837
lclavicle -8.74653e-015 -4.13472e-014
lhumerus -17.355 -44.7232 82.7972
lradius 96.3748
lwrist 2.91664
lhand -41.519 -50.534
lfingers 7.12502
lthumb -14.4317 -21.0557
rfemur -47.3036 3.11396 23.7346
rtibia 61.9386
rfoot -22.3975 4.41016
rtoes 0.740018
lfemur -12.4963 6.18106 -24.7373
ltibia 45.7896
lfoot -38.6266 -1.47703
ltoes 7.74522
385
root 29.5661 15.3238 -9.82792 139.352 -77.5988 -130.385
lowerback -1.18622 -0.117806 0.472603
upperback 0.820172 -0.157748 -0.806727
thorax 1.50111 -0.0708619 -1.09509
lowerneck -1.07292 2.75657 0.405344
upperneck -15.5466 4.01725 5.4608
head -4.58178 1.46994 1.48493
rclavicle 8.54774e-015 1.11319e-014
rhumerus -17.4007 28.4385 -93.1285
rradius 94.9308
rwrist -7.62894
rhand -17.6424 -9.05196
rfingers 7.12502
rthumb 8.61543 -38.8562
lclavicle 8.54774e-015 1.11319e-014
lhumerus -16.1842 -46.2326 82.0617
lradius 97.0968
lwrist 2.29078
lhand -40.6624 -50.4015
lfingers 7.12502
lthumb -13.6063 -20.8661
rfemur -48.5049 3.2431 23.211
rtibia 62.1679
rfoot -22.243 4.44349
rtoes 1.02573
lfemur -11.8278 6.41963 -25.4992
ltibia 45.0008
lfoot -39.6126 -1.05894
ltoes 7.82433
386
root 29.461 15.2836 -9.88747 144.67 -77.5024 -135.48
lowerback -1.21449 -0.314824 0.133844
upperback 0.664275 -0.413613 -1.04586
thorax 1.3521 -0.202554 -1.1559
lowerneck -0.647629 3.20233 0.841053
upperneck -15.8835 4.64079 5.32823
head -4.76297 1.73703 1.34105
rclavicle 1.8487e-014 3.65764e-014
rhumerus -18.0405 27.9533 -94.2436
rradius 95.2322
rwrist -8.21826
rhand -17.774 -8.97304
rfingers 7.12502
rthumb 8.48846 -38.7824
lclavicle 1.8487e-014 3.65764e-014
lhumerus -15.1328 -47.7374 81.4267
lradius 97.6049
lwrist 1.56951
lhand -39.9031 -50.241
lfingers 7.12502
lthumb -12.8744 -20.6581
rfemur -49.7131 3.21513 22.6401
rtibia 62.3366
rfoot -22.0437 4.51889
rtoes 1.26012
lfemur -11.2347 6.46226 -26.3892
ltibia 44.1737
lfoot -40.4487 -0.279961
ltoes 7.54313
387
root 29.3464 15.255 -9.93888 149.473 -77.3586 -140.001
lowerback -1.30559 -0.512881 0.00640854
upperback 0.491758 -0.675857 -1.27342
thorax 1.21974 -0.33554 -1.32354
lowerneck -0.186877 3.60722 1.16548
upperneck -16.2312 5.21598 5.22143
head -4.95268 1.98361 1.22162
rclavicle -2.38542e-015 2.22639e-014
rhumerus -18.9579 27.4811 -95.363
rradius 95.502
rwrist -8.80219
rhand -18.094 -8.75147
rfingers 7.12502
rthumb 8.17962 -38.5731
lclavicle -2.38542e-015 2.22639e-014
lhumerus -14.1891 -49.2036 80.9269
lradius 97.8679
lwrist 0.694473
lhand -39.1913 -50.2333
lfingers 7.12502
lthumb -12.1882 -20.6083
rfemur -50.85 3.05621 22.0806
rtibia 62.4069
rfoot -21.7699 4.6526
rtoes 1.70568
lfemur -10.6727 6.36369 -27.2902
ltibia 43.3083
lfoot -41.0958 0.709832
ltoes 6.99691
388
root 29.2222 15.2378 -9.98194 153.429 -77.1667 -143.657
lowerback -1.41446 -0.712941 0.151607
upperback 0.342125 -0.946011 -1.45599
thorax 1.11598 -0.470581 -1.59853
lowerneck 0.142799 3.96997 1.44664
upperneck -16.492 5.71737 5.04345
head -5.08893 2.20548 1.09066
rclavicle 1.17283e-014 -3.18055e-014
rhumerus -20.0649 27.0208 -96.4263
rradius 95.7144
rwrist -9.31873
rhand -18.5459 -8.35594
rfingers 7.12502
rthumb 7.74351 -38.1942
lclavicle 1.17283e-014 -3.18055e-014
lhumerus -13.2746 -50.5918 80.5352
lradius 97.8683
lwrist -0.322559
lhand -38.3965 -50.5148
lfingers 7.12502
lthumb -11.4217 -20.8459
rfemur -51.8367 2.77793 21.6064
rtibia 62.3506
rfoot -21.4064 4.79418
rtoes 2.38351
lfemur -10.0836 6.22008 -28.0675
ltibia 42.4061
lfoot -41.4955 1.69685
ltoes 6.41149
389
root 29.0885 15.2321 -10.0168 156.415 -76.9118 -146.355
lowerback -1.45624 -0.919496 0.566092
upperback 0.210151 -1.2299 -1.5439
thorax 0.985494 -0.61132 -1.92688
lowerneck 0.293285 4.31592 1.64988
upperneck -16.6231 6.16897 4.77566
head -5.15082 2.42137 0.949889
rclavicle 8.74653e-015 3.97569e-014
rhumerus -21.3308 26.6227 -97.3909
rradius 95.8309
rwrist -9.77293
rhand -19.0768 -7.79567
rfingers 7.12502
rthumb 7.23105 -37.6521
lclavicle 8.74653e-015 3.97569e-014
lhumerus -12.4551 -51.8157 80.3341
lradius 97.6079
lwrist -1.46145
lhand -37.3874 -51.1518
lfingers 7.12502
lthumb -10.4484 -21.4314
rfemur -52.6366 2.4532 21.2622
rtibia 62.1571
rfoot -20.9347 4.89546
rtoes 3.46371
lfemur -9.43651 6.1732 -28.6158
ltibia 41.4817
lfoot -41.6198 2.4533
ltoes 5.8821
390
root 28.9465 15.2365 -10.0448 158.571 -76.5985 -148.249
lowerback -1.40463 -1.12515 1.21065
upperback 0.0941869 -1.51543 -1.53696
thorax 0.810658 -0.752844 -2.28467
lowerneck 0.289698 4.64935 1.78499
upperneck -16.6357 6.57537 4.40443
head -5.14523 2.63365 0.794411
rclavicle -1.68967e-014 -2.70347e-014
rhumerus -22.7124 26.2878 -98.2446
rradius 95.8203
rwrist -10.2109
rhand -19.6575 -7.1314
rfingers 7.12502
rthumb 6.6705 -37.0063
lclavicle -1.68967e-014 -2.70347e-014
lhumerus -11.7575 -52.8496 80.3392
lradius 97.0865
lwrist -2.71723
lhand -36.1099 -52.0147
lfingers 7.12502
lthumb -9.21586 -22.2361
rfemur -53.2474 2.1383 21.0229
rtibia 61.8386
rfoot -20.3664 4.91954
rtoes 4.89672
lfemur -8.73152 6.36352 -28.9133
ltibia 40.5629
lfoot -41.4519 2.80759
ltoes 5.41009
391
root 28.7981 15.2488 -10.0682 160.294 -76.2277 -149.737
lowerback -1.28153 -1.32038 1.98419
upperback 0.00950893 -1.78602 -1.46464
thorax 0.620562 -0.88781 -2.64483
lowerneck 0.107658 4.99571 1.86358
upperneck -16.522 6.97353 3.95735
head -5.06699 2.85775 0.631643
rclavicle -1.2921e-014 -3.81667e-014
rhumerus -24.1244 26.0198 -98.9804
rradius 95.6616
rwrist -10.7033
rhand -20.2688 -6.43166
rfingers 7.12502
rthumb 6.08028 -36.3244
lclavicle -1.2921e-014 -3.81667e-014
lhumerus -11.1538 -53.7438 80.4873
lradius 96.3342
lwrist -3.88119
lhand -34.6313 -52.7311
lfingers 7.12502
lthumb -7.78891 -22.8946
rfemur -53.7063 1.88939 20.8099
rtibia 61.4242
rfoot -19.7424 4.81061
rtoes 6.4006
lfemur -8.00901 6.87423 -29.0244
ltibia 39.6968
lfoot -40.9668 2.71787
ltoes 5.05589
392
root 28.6456 15.2664 -10.0903 161.938 -75.7971 -151.159
lowerback -1.11755 -1.49037 2.77813
upperback -0.0665305 -2.01926 -1.35366
thorax 0.413231 -1.00609 -2.97347
lowerneck -0.111683 5.35358 1.90244
upperneck -16.3398 7.37709 3.45659
head -4.95851 3.09369 0.462182
rclavicle -3.81667e-014 2.38542e-014
rhumerus -25.5779 25.7976 -99.6152
rradius 95.3514
rwrist -11.2948
rhand -20.9114 -5.7703
rfingers 7.12502
rthumb 5.4599 -35.68
lclavicle -3.81667e-014 2.38542e-014
lhumerus -10.743 -54.5597 80.8267
lradius 95.3907
lwrist -4.8748
lhand -33.1321 -52.9254
lfingers 7.12502
lthumb -6.3417 -23.0403
rfemur -54.0649 1.75986 20.5436
rtibia 60.9477
rfoot -19.1042 4.5251
rtoes 7.81008
lfemur -7.34713 7.6911 -29.0364
ltibia 38.9463
lfoot -40.1592 2.27164
ltoes 4.70205
393
root 28.4909 15.2885 -10.113 163.757 -75.3132 -152.761
lowerback -0.962631 -1.62951 3.51594
upperback -0.119645 -2.20768 -1.24049
thorax 0.234903 -1.10309 -3.26697
lowerneck -0.308246 5.72842 1.93066
upperneck -16.1617 7.80236 2.92256
head -4.85224 3.34206 0.284923
rclavicle 2.18663e-015 -5.24792e-014
rhumerus -27.0028 25.6136 -100.156
rradius 94.8805
rwrist -12.0066
rhand -21.5776 -5.24767
rfingers 7.12502
rthumb 4.81661 -35.1729
lclavicle 2.18663e-015 -5.24792e-014
lhumerus -10.4831 -55.34 81.2795
lradius 94.2771
lwrist -5.59332
lhand -31.7826 -52.4014
lfingers 7.12502
lthumb -5.03877 -22.4813
rfemur -54.3606 1.77489 20.1508
rtibia 60.4357
rfoot -18.486 4.03545
rtoes 8.981
lfemur -6.80301 8.7381 -29.0376
ltibia 38.3756
lfoot -39.072 1.52079
ltoes 4.42918
394
root 28.3355 15.3159 -10.1369 165.887 -74.7858 -154.676
lowerback -0.823892 -1.73774 4.13822
upperback -0.141464 -2.35199 -1.1478
thorax 0.101579 -1.17801 -3.51639
lowerneck -0.465334 6.12168 1.96774
upperneck -16.0302 8.25429 2.36689
head -4.76342 3.60122 0.098993
rclavicle 9.14409e-015 6.36111e-015
rhumerus -28.3443 25.458 -100.598
rradius 94.2498
rwrist -12.853
rhand -22.2202 -4.96272
rfingers 7.12502
rthumb 4.19616 -34.9011
lclavicle 9.14409e-015 6.36111e-015
lhumerus -10.344 -56.1053 81.8137
lradius 92.9938
lwrist -5.98821
lhand -30.6746 -51.1546
lfingers 7.12502
lthumb -3.96894 -21.2118
rfemur -54.6038 1.93456 19.5766
rtibia 59.9037
rfoot -17.9136 3.37198
rtoes 9.96257
lfemur -6.42151 9.95389 -29.1056
ltibia 38.0506
lfoot -37.73 0.659331
ltoes 3.98511
